<svg preserveAspectRatio="xMidYMid meet" id="comp-k8xpi6vk2svgcontent" data-bbox="38 41 123.999 118" viewBox="38 41 123.999 118" height="200" width="200" xmlns="http://www.w3.org/2000/svg" data-type="color" fill="#ffffff" role="img" aria-labelledby="comp-k8xpi6vk2-svgtitle">
    <g>
        <path d="M161.971 159H38.033L38 139.652c-.011-9.519 5.151-16.928 14.155-20.333 3.37-1.276 17.158-5.928 23.247-7.975v-10.233c-4.176-17.061-6.671-27.43-4.369-37.093C74.363 50.055 85.732 41.02 99.994 41c14.276.02 25.647 9.055 28.977 23.018 2.304 9.658-.192 20.029-4.371 37.092v10.234c6.089 2.047 19.877 6.699 23.249 7.976 9.007 3.404 14.164 10.813 14.15 20.331L161.971 159zm-115.504-8.453h107.068l.018-10.908c.009-5.967-2.996-10.258-8.689-12.411-4.123-1.562-25.611-8.763-25.829-8.834l-2.882-.967V100.09l.121-.495c4.273-17.459 6.25-26.18 4.479-33.614-1.901-7.978-8.355-16.509-20.759-16.526-12.388.017-18.842 8.547-20.745 16.527-1.771 7.436.204 16.156 4.481 33.613l.121.495v17.337l-2.882.967c-.217.072-21.706 7.272-25.824 8.833-5.697 2.153-8.702 6.445-8.698 12.413l.02 10.907z" data-color="1"></path>
    </g>
</svg>
